# xmcd
# 
# Track frame offsets:
#     150
#     21911
#     49115
#     68209
#     95659
#     119990
#     144299
#     163105
#     180002
#     194695
#     218538
# 
# Disc length: 3208
# 
# Revision: 0
# Processed by: cddbd v1.5.2PL0 Copyright (c) Steve Scherf et al.
# Submitted via: fre:ac v1.0.27
# 
DISCID=9e0c860b
DTITLE=Threesome - Cubic Magic
DYEAR=2016
DGENRE=Jazz
TTITLE0=My Favorite Things
TTITLE1=This Masquerade
TTITLE2=Spinning Wheel
TTITLE3=Left Alove
TTITLE4=So What
TTITLE5=The Shadow of Your Smile
TTITLE6=Beséme Mucho
TTITLE7=Summertime
TTITLE8=Memories of Tommorow(The Köln Concert - Part IIc)
TTITLE9=Sakura Garden
TTITLE10=I Beliave in You
EXTD=
EXTT0=
EXTT1=
EXTT2=
EXTT3=
EXTT4=
EXTT5=
EXTT6=
EXTT7=
EXTT8=
EXTT9=
EXTT10=
PLAYORDER=
